<?xml version="1.0" standalone="no"?>
<!DOCTYPE svg PUBLIC "-//W3C//DTD SVG 20010904//EN"
 "http://www.w3.org/TR/2001/REC-SVG-20010904/DTD/svg10.dtd">
<svg version="1.0" xmlns="http://www.w3.org/2000/svg"
 width="1472.000000pt" height="536.000000pt" viewBox="0 0 1472.000000 536.000000"
 preserveAspectRatio="xMidYMid meet">

<g transform="translate(0.000000,536.000000) scale(0.100000,-0.100000)"
fill="#000000" stroke="none">
<path d="M7358 4740 c-27 -16 -52 -30 -58 -30 -5 0 -10 -3 -10 -7 0 -5 -20
-17 -45 -28 -25 -11 -45 -23 -45 -27 0 -5 -9 -8 -19 -8 -11 0 -22 -4 -25 -8
-3 -5 -38 -25 -78 -46 -40 -21 -77 -43 -83 -50 -5 -7 -26 -18 -45 -26 -35 -14
-102 -59 -108 -72 -2 -5 -10 -8 -18 -8 -8 0 -14 -4 -14 -9 0 -5 -13 -12 -30
-16 -16 -4 -30 -11 -30 -16 0 -5 -5 -9 -10 -9 -9 0 -63 -31 -136 -78 -10 -6
-29 -16 -41 -22 -13 -5 -23 -14 -23 -20 0 -5 -7 -10 -15 -10 -8 0 -15 -3 -15
-8 0 -4 -12 -13 -27 -19 -16 -7 -44 -26 -63 -43 -19 -16 -42 -30 -51 -30 -9 0
-24 -9 -34 -20 -10 -11 -24 -20 -30 -20 -7 0 -19 -7 -26 -16 -16 -19 -67 -15
-120 9 -38 18 -191 69 -256 86 -36 10 -46 9 -75 -9 -62 -36 -114 -40 -193 -13
-39 13 -98 33 -132 44 -68 21 -77 33 -38 51 26 12 43 45 28 57 -4 4 -26 12
-48 18 -22 6 -92 28 -155 47 -63 20 -127 36 -141 36 -31 0 -113 -32 -184 -73
-27 -15 -62 -33 -77 -40 -16 -6 -28 -15 -28 -19 0 -4 -8 -8 -17 -8 -10 0 -38
-14 -63 -30 -25 -16 -51 -30 -57 -30 -7 0 -13 -5 -13 -11 0 -5 -16 -17 -37
-25 -20 -9 -76 -42 -124 -75 -49 -32 -91 -59 -94 -59 -3 0 -16 -9 -28 -21 -12
-11 -41 -30 -64 -41 -24 -11 -43 -24 -43 -29 0 -5 -6 -9 -12 -9 -12 0 -30 -13
-96 -69 -12 -11 -32 -23 -45 -27 -12 -4 -32 -17 -44 -30 -12 -13 -26 -24 -31
-24 -5 0 -15 -7 -22 -15 -7 -8 -21 -15 -31 -15 -11 0 -19 -6 -19 -12 0 -16
-111 -88 -134 -88 -10 0 -16 -9 -16 -22 0 -19 5 -23 32 -22 76 3 178 -82 178
-148 0 -18 5 -28 15 -28 17 0 19 -13 5 -38 -5 -9 -12 -43 -15 -74 -4 -31 -13
-62 -21 -69 -8 -6 -14 -18 -14 -25 0 -8 -8 -23 -17 -35 -70 -80 -107 -99 -223
-107 -64 -4 -65 -5 -123 -64 l-59 -59 6 -94 c9 -141 26 -174 102 -195 45 -13
57 -32 27 -45 -13 -5 -313 -9 -361 -5 -8 0 20 40 29 40 6 0 17 7 25 15 8 8 22
19 31 24 16 9 35 111 26 138 -6 15 -33 5 -33 -11 0 -7 -20 -34 -45 -60 -25
-27 -45 -50 -45 -52 0 -2 -17 -21 -37 -43 -52 -53 -107 -119 -111 -131 -2 -6
-10 -10 -18 -10 -8 0 -14 -7 -14 -15 0 -9 -7 -18 -15 -21 -8 -4 -15 -12 -15
-20 0 -8 -6 -14 -12 -14 -7 0 -28 -14 -45 -31 -30 -27 -33 -28 -33 -10 0 12
-6 21 -14 21 -19 0 -29 -30 -15 -46 13 -15 4 -34 -16 -34 -8 0 -21 -13 -29
-29 -9 -16 -36 -46 -61 -67 -25 -22 -45 -44 -45 -50 0 -7 -7 -14 -15 -18 -8
-3 -15 -10 -15 -15 0 -5 -14 -25 -30 -43 -17 -18 -30 -37 -30 -43 0 -16 -69
-75 -87 -75 -24 0 -7 51 27 81 17 14 30 32 30 41 0 9 7 21 15 28 8 7 15 18 15
25 0 7 7 18 15 25 19 16 19 37 1 37 -8 0 -24 -18 -36 -39 -12 -21 -24 -38 -28
-38 -4 0 -13 -14 -21 -31 -8 -18 -22 -34 -32 -36 -11 -3 -19 -12 -19 -20 0
-17 -29 -72 -46 -88 -6 -5 -19 -23 -29 -40 -10 -16 -24 -34 -32 -38 -7 -4 -13
-20 -13 -34 0 -25 1 -25 53 -19 29 4 73 3 98 -3 47 -10 186 -25 230 -24 15 0
48 14 73 32 26 17 51 31 56 31 5 0 15 8 22 18 7 9 25 25 41 35 15 10 27 21 27
25 0 12 127 142 139 142 6 0 11 7 11 17 0 13 3 12 18 -5 25 -28 189 -51 360
-49 111 1 125 -1 143 -20 l21 -21 -31 -18 c-17 -10 -31 -24 -31 -31 0 -8 -7
-16 -15 -19 -8 -4 -15 -12 -15 -20 0 -13 -33 -68 -69 -116 -12 -14 -21 -33
-21 -42 0 -8 -6 -19 -12 -23 -7 -4 -24 -29 -38 -55 -13 -27 -28 -48 -32 -48
-5 0 -8 -11 -8 -24 0 -20 6 -24 46 -30 26 -3 126 -6 222 -6 170 0 175 1 196
23 87 97 106 119 106 127 0 4 13 19 28 32 15 13 31 31 35 41 3 9 11 17 17 17
5 0 10 6 10 13 0 14 21 44 62 88 16 16 28 34 28 39 0 6 7 10 15 10 8 0 15 6
15 13 0 6 20 32 45 56 25 24 45 49 45 55 0 7 34 44 75 84 41 40 75 76 75 81 0
5 7 11 15 15 8 3 15 10 15 16 0 12 28 40 56 56 10 6 23 20 29 32 5 12 13 22
17 22 4 0 31 24 61 53 47 48 117 88 117 69 0 -14 -54 -112 -62 -112 -4 0 -8
-8 -8 -18 0 -11 -13 -37 -28 -58 -16 -21 -31 -46 -35 -54 -17 -35 -35 -58 -80
-104 -36 -37 -55 -49 -76 -48 -20 0 -32 -7 -44 -26 -8 -15 -35 -50 -59 -78
-24 -28 -56 -68 -73 -88 -16 -21 -42 -52 -57 -69 -15 -18 -28 -35 -28 -39 0
-5 -8 -16 -17 -26 -10 -10 -25 -28 -33 -40 -8 -12 -20 -22 -27 -22 -7 0 -13
-7 -13 -15 0 -9 -20 -30 -45 -47 -40 -28 -58 -57 -37 -59 4 0 34 -2 67 -5 138
-12 143 -11 207 51 31 30 62 55 68 55 5 0 10 7 10 15 0 8 6 15 13 15 6 0 23
16 36 35 13 19 27 35 32 35 5 0 9 7 9 15 0 9 7 18 15 21 8 4 15 12 15 19 0 7
3 15 8 17 15 7 105 114 113 135 5 13 13 23 19 23 5 0 10 7 10 15 0 8 4 15 9
15 6 0 16 12 23 28 7 15 23 31 36 37 12 5 22 14 22 19 0 12 31 35 48 36 14 0
17 -36 3 -44 -12 -8 -51 -84 -51 -100 0 -7 -7 -19 -15 -26 -8 -7 -15 -21 -15
-31 0 -9 -7 -24 -15 -33 -15 -15 -21 -85 -7 -87 18 -1 61 -8 117 -17 55 -10
134 -14 260 -16 32 0 66 7 96 22 25 12 52 22 60 22 8 0 19 4 25 9 19 19 85 51
104 51 11 0 20 4 20 8 0 4 12 13 28 19 53 23 92 49 143 95 10 10 21 18 24 18
6 0 47 34 87 72 16 16 31 28 33 28 6 0 105 100 105 107 0 9 70 73 80 73 4 0
10 7 13 15 4 8 24 26 47 40 22 14 40 32 40 40 0 16 9 19 34 9 10 -4 16 -18 16
-38 0 -33 -20 -86 -32 -86 -4 0 -24 -28 -44 -62 -20 -35 -41 -66 -46 -69 -10
-7 -30 -39 -47 -76 -6 -13 -15 -23 -21 -23 -5 0 -10 -9 -10 -20 0 -10 -6 -23
-13 -27 -8 -4 -22 -27 -32 -50 -11 -24 -23 -43 -27 -43 -5 0 -13 -11 -18 -25
-5 -14 -14 -25 -20 -25 -5 0 -10 -7 -10 -15 0 -23 60 -30 259 -30 139 0 185 3
188 13 3 6 10 12 16 12 7 0 21 14 32 30 11 16 25 30 32 30 6 0 15 9 18 20 3
11 11 20 16 20 5 0 9 9 9 20 0 11 7 20 15 20 8 0 15 6 15 14 0 18 110 139 118
131 3 -3 5 -23 4 -44 l-3 -39 76 -1 c42 0 84 -5 95 -11 11 -6 58 -9 105 -7 47
2 85 0 85 -3 0 -4 14 -5 30 -2 24 3 30 0 31 -14 2 -35 -3 -48 -32 -85 -16 -20
-29 -41 -29 -46 0 -5 -13 -24 -30 -43 -16 -19 -29 -42 -30 -51 0 -9 -7 -22
-15 -29 -8 -7 -15 -18 -15 -25 0 -7 -7 -18 -15 -25 -8 -7 -15 -21 -15 -31 0
-11 -7 -19 -15 -19 -9 0 -15 -9 -15 -24 0 -25 -28 -86 -44 -97 -5 -4 -6 -14
-3 -23 5 -12 20 -16 59 -17 29 0 114 -2 188 -5 127 -5 138 -4 178 18 23 12 42
26 42 30 0 5 5 8 10 8 6 0 28 17 48 38 20 20 49 43 65 51 15 8 27 20 27 28 0
7 5 13 10 13 12 0 50 37 50 48 0 14 125 139 165 165 34 22 51 25 115 25 l75
-1 5 -36 c5 -34 8 -37 53 -48 40 -10 81 -16 150 -22 26 -3 -11 -48 -56 -68
-81 -37 23 -74 216 -76 96 -1 140 2 145 10 4 6 20 15 35 18 15 4 27 13 27 20
0 7 10 15 23 19 12 3 43 25 69 48 77 71 98 88 108 88 6 0 10 6 10 13 0 6 21
27 45 46 25 18 45 40 45 47 0 8 5 14 11 14 7 0 26 15 44 32 17 18 53 51 79 73
26 22 83 75 126 118 44 42 84 77 90 77 5 0 10 7 10 15 0 8 4 15 9 15 16 0 81
63 81 78 0 8 6 12 15 8 9 -3 15 0 15 9 0 8 5 15 10 15 6 0 21 11 34 25 13 14
26 25 29 25 4 0 20 13 37 30 17 16 44 37 60 45 31 16 38 40 21 73 -25 49 -41
95 -41 117 0 13 -7 36 -14 52 -8 15 -17 36 -20 46 -8 25 -45 21 -72 -8 -13
-14 -28 -25 -34 -25 -5 0 -10 -6 -10 -12 -1 -7 -21 -26 -45 -41 -25 -16 -45
-35 -45 -43 0 -8 -7 -14 -15 -14 -9 0 -35 -18 -59 -40 -24 -22 -46 -40 -50
-40 -15 0 -3 23 29 56 19 19 35 39 35 44 0 6 5 10 10 10 6 0 24 16 41 35 17
19 46 44 65 55 20 13 34 30 34 41 0 19 -7 20 -132 17 -151 -3 -155 -5 -182
-83 -10 -27 -31 -76 -47 -108 -46 -91 -37 -129 35 -152 21 -7 31 -16 31 -30 0
-19 -7 -20 -137 -21 -127 -1 -138 0 -138 17 0 12 10 21 26 25 32 8 64 38 64
60 0 9 7 30 16 47 39 74 44 86 44 101 0 9 4 16 8 16 5 0 14 18 21 40 6 22 16
40 21 40 6 0 10 11 10 25 0 14 4 25 10 25 5 0 12 12 16 28 5 24 44 112 80 184
8 14 14 33 14 41 0 8 7 20 15 27 8 7 15 21 15 30 0 17 28 79 41 90 5 5 42 82
60 125 4 11 17 41 28 67 12 26 21 53 21 60 0 9 3 9 8 2 4 -6 17 -16 30 -23 13
-7 22 -21 22 -36 0 -13 7 -30 15 -39 8 -8 15 -26 15 -39 0 -14 7 -30 15 -37 8
-7 15 -23 15 -35 0 -13 8 -38 17 -57 31 -61 33 -67 39 -110 3 -24 13 -53 20
-65 8 -12 14 -29 14 -38 0 -8 4 -15 10 -15 12 0 110 98 110 110 0 6 7 10 15
10 8 0 15 9 15 20 0 11 4 20 10 20 5 0 22 11 37 25 84 76 137 120 156 130 88
46 91 80 8 91 -13 2 -28 7 -34 13 -21 21 7 31 87 31 57 0 94 5 117 17 42 20
99 77 99 98 0 8 5 15 10 15 13 0 50 37 50 50 0 6 7 10 15 10 8 0 15 4 15 8 0
4 20 21 45 36 25 16 45 35 45 42 0 8 6 14 14 14 8 0 23 11 34 25 11 14 24 25
29 25 5 0 36 25 68 55 33 31 76 69 95 86 19 17 48 41 63 55 15 13 35 24 43 24
7 0 14 7 14 15 0 8 4 15 9 15 5 0 27 17 48 38 37 37 99 88 203 167 29 22 60
48 69 58 8 9 22 17 29 17 8 0 12 5 10 12 -4 11 -194 78 -201 71 -2 -2 -32 6
-67 18 -41 13 -75 18 -96 14 -35 -6 -177 -74 -182 -87 -2 -5 -9 -8 -16 -8 -6
0 -28 -11 -47 -24 -20 -14 -48 -28 -63 -32 -14 -3 -26 -9 -26 -13 0 -3 -19
-15 -43 -26 -23 -11 -44 -22 -47 -25 -3 -3 -50 -31 -105 -63 -55 -31 -119 -69
-141 -84 -176 -118 -216 -143 -224 -143 -6 0 -10 -6 -10 -14 0 -8 -13 -17 -30
-21 -16 -4 -30 -12 -30 -19 0 -7 -20 -23 -45 -36 -25 -13 -45 -27 -45 -32 0
-4 -6 -8 -13 -8 -7 0 -23 -9 -35 -20 -12 -11 -26 -20 -31 -20 -6 0 -18 -8 -28
-18 -10 -10 -58 -47 -107 -82 -87 -60 -146 -89 -146 -69 0 5 -9 9 -20 9 -11 0
-20 7 -20 15 0 24 181 195 206 195 4 0 17 11 30 25 13 14 28 25 34 25 5 0 10
5 10 10 0 6 7 10 15 10 8 0 15 6 15 13 1 15 18 29 144 117 54 39 105 70 112
70 26 0 14 30 -13 36 -16 3 -46 12 -68 19 -22 7 -55 16 -72 20 -18 3 -35 11
-38 16 -4 5 -16 9 -27 9 -12 0 -45 7 -74 17 l-52 16 -52 -33 c-29 -18 -57 -38
-63 -44 -7 -6 -24 -17 -39 -25 -15 -8 -36 -21 -45 -30 -10 -9 -30 -22 -45 -28
-16 -7 -28 -17 -28 -23 0 -5 -5 -10 -10 -10 -6 0 -20 -9 -32 -20 -12 -11 -28
-20 -35 -20 -7 0 -13 -4 -13 -10 0 -5 -6 -10 -13 -10 -7 0 -28 -13 -47 -30
-19 -16 -41 -29 -47 -30 -7 0 -13 -3 -13 -7 0 -5 -16 -19 -35 -32 l-34 -23
-176 58 c-188 62 -204 75 -147 111 15 10 35 26 46 35 10 9 32 20 47 23 22 5
29 12 29 31 0 17 -6 24 -20 24 -23 0 -176 41 -260 68 -42 15 -60 16 -82 8 -15
-6 -28 -14 -28 -18 0 -4 -6 -8 -14 -8 -7 0 -19 -7 -26 -15 -7 -8 -19 -15 -26
-15 -8 0 -31 -11 -52 -25 -64 -42 -86 -42 -236 9 -75 25 -145 46 -156 46 -35
0 -118 -51 -113 -69 3 -11 -22 -35 -77 -76 -45 -33 -90 -68 -101 -77 -10 -10
-23 -18 -29 -18 -5 0 -10 -4 -10 -10 0 -5 -6 -10 -13 -10 -8 0 -22 -9 -32 -20
-10 -11 -22 -20 -28 -20 -5 0 -18 -11 -29 -25 -11 -14 -39 -37 -64 -51 -24
-14 -44 -29 -44 -33 0 -4 -12 -14 -27 -22 -15 -8 -44 -31 -65 -51 -21 -21 -42
-38 -48 -38 -5 0 -10 -7 -10 -15 0 -8 -13 -21 -30 -30 -16 -9 -30 -20 -30 -25
0 -6 -5 -10 -10 -10 -6 0 -21 -11 -33 -24 -25 -27 -101 -44 -112 -26 -5 8 7
26 29 46 20 18 36 37 36 41 0 5 13 17 30 26 16 10 29 21 27 25 -3 9 28 40 78
77 56 42 65 50 108 90 21 19 42 35 47 35 6 0 10 7 10 15 0 8 5 15 10 15 6 0
35 25 65 55 30 30 59 55 64 55 6 0 21 10 34 23 14 12 41 36 61 52 50 41 77 64
121 103 21 18 57 47 81 64 24 17 44 35 44 40 0 4 7 8 15 8 8 0 15 6 15 13 1
11 79 76 104 86 6 2 32 26 59 52 49 48 54 69 16 69 -25 0 -129 35 -194 65 -27
13 -70 26 -95 29 -39 6 -52 2 -92 -24z m-538 -646 c0 -15 -102 -104 -119 -104
-6 0 -11 -3 -11 -7 0 -5 -20 -21 -45 -36 -25 -16 -45 -33 -45 -38 0 -15 -60
-40 -80 -34 -26 8 -25 22 0 30 11 3 20 11 20 16 0 5 6 9 13 9 6 0 28 14 47 30
19 16 40 30 47 30 6 0 20 11 31 25 11 14 23 25 26 25 4 0 17 11 30 25 13 14
28 25 35 25 6 0 11 4 11 8 0 4 9 8 20 8 11 0 20 -6 20 -12z m2940 -247 c0 -20
-70 -87 -91 -87 -43 0 -9 53 55 84 38 19 36 19 36 3z m-4270 -177 c0 -5 -7 -7
-15 -4 -8 4 -15 8 -15 10 0 2 7 4 15 4 8 0 15 -4 15 -10z m-1095 -24 c48 -9
44 -37 -7 -50 -29 -7 -40 -17 -48 -40 -8 -20 -14 -174 -17 -426 -6 -444 -12
-409 71 -440 28 -11 42 -22 44 -37 4 -26 -34 -38 -73 -23 -15 6 -78 8 -141 6
-102 -4 -115 -2 -124 14 -11 20 0 33 39 45 57 17 58 22 65 270 17 570 18 596
6 609 -6 8 -31 19 -55 25 -34 9 -45 16 -45 31 0 16 8 19 63 22 88 4 179 2 222
-6z m729 -6 c33 -5 64 -14 70 -20 5 -5 20 -10 33 -10 13 0 23 -4 23 -10 0 -14
42 -34 70 -32 48 3 51 -6 48 -137 l-3 -123 -27 22 c-19 15 -28 31 -28 51 0 16
-4 29 -10 29 -5 0 -16 13 -24 28 -22 42 -86 106 -131 130 -83 45 -240 43 -356
-4 -41 -17 -109 -65 -109 -78 0 -3 -13 -24 -29 -48 -44 -67 -65 -170 -58 -295
3 -58 10 -110 16 -116 6 -6 11 -25 11 -42 0 -17 9 -47 20 -68 11 -20 20 -41
20 -47 0 -10 34 -54 61 -78 9 -8 28 -24 42 -37 73 -65 208 -99 297 -74 58 16
190 83 190 97 0 6 5 12 11 12 16 0 48 42 49 63 0 25 25 48 44 41 20 -8 20 -12
1 -99 -15 -75 -29 -92 -102 -126 -36 -17 -93 -31 -173 -44 -14 -3 -47 -5 -73
-6 -32 -1 -50 -6 -54 -15 -5 -13 -7 -13 -17 0 -6 7 -36 17 -66 20 -68 9 -130
26 -150 42 -8 6 -30 19 -49 29 -43 22 -141 121 -141 144 0 9 -7 25 -15 35 -8
11 -15 27 -15 35 0 9 -7 29 -15 45 -11 21 -15 64 -15 177 0 82 4 150 9 154 6
3 13 25 17 50 3 24 12 50 20 56 8 6 14 18 14 26 0 29 108 153 133 153 7 0 31
13 53 29 71 51 238 68 408 41z m488 -5 c141 -6 160 -6 410 -2 125 1 230 6 234
10 4 3 16 -3 26 -16 15 -16 18 -31 14 -57 -4 -19 -10 -55 -14 -80 -4 -25 -10
-44 -14 -42 -5 1 -12 2 -18 2 -5 0 -10 18 -10 40 0 55 -17 61 -176 63 -141 1
-160 -4 -149 -43 6 -20 6 -199 0 -515 -5 -295 -6 -292 73 -316 41 -12 58 -42
30 -51 -7 -2 -83 -3 -168 -2 -141 2 -155 3 -155 20 0 11 12 21 30 27 38 12 65
36 65 57 0 9 2 19 5 22 3 3 9 165 12 359 3 195 6 374 7 399 l1 45 -130 1
c-158 0 -195 -10 -195 -56 0 -43 -16 -70 -42 -70 -20 0 -21 3 -14 68 14 151
17 157 55 147 14 -4 70 -8 123 -10z m1021 -4 c40 -1 38 -37 -3 -46 -62 -14
-60 4 -60 -455 0 -367 2 -421 16 -434 8 -9 22 -16 30 -16 31 0 74 -30 74 -52
0 -20 -3 -20 -67 -14 -38 3 -113 7 -168 9 -92 2 -100 4 -100 22 0 13 10 22 32
28 61 18 63 28 64 481 1 271 -2 411 -9 418 -5 5 -25 13 -44 17 -19 4 -34 14
-36 23 -3 14 7 17 55 20 32 2 87 2 123 1 36 -1 77 -2 93 -2z m727 -18 c30 -9
75 -27 100 -40 43 -23 100 -75 100 -92 0 -5 13 -24 30 -42 16 -19 30 -41 30
-49 0 -9 6 -25 14 -36 14 -19 38 -207 29 -229 -2 -7 -8 -43 -12 -81 -5 -38
-14 -85 -21 -104 -25 -66 -41 -105 -50 -120 -6 -8 -14 -24 -19 -35 -5 -11 -22
-29 -37 -40 -15 -11 -42 -32 -59 -46 -32 -27 -93 -57 -160 -80 -66 -21 -221
-16 -304 12 -39 12 -71 26 -71 31 0 4 -7 8 -15 8 -8 0 -15 5 -15 10 0 6 -6 10
-12 10 -16 0 -108 94 -108 110 0 6 -7 13 -15 16 -8 4 -15 16 -15 28 0 12 -6
30 -14 41 -7 11 -17 38 -21 60 -5 22 -10 47 -13 55 -2 8 -7 61 -9 118 -4 77
-1 114 11 149 9 26 16 61 16 79 0 17 7 37 15 44 8 7 15 19 15 27 0 8 11 24 24
34 14 11 28 28 31 39 4 11 12 20 18 20 7 1 28 14 47 30 19 17 42 30 52 30 10
0 21 7 24 15 4 8 18 15 33 15 15 0 32 5 38 11 28 28 250 29 343 2z m469 -10
c17 -15 31 -35 31 -45 0 -10 7 -18 15 -18 8 0 15 -6 15 -14 0 -8 7 -16 15 -20
8 -3 15 -12 15 -21 0 -8 7 -15 15 -15 8 0 15 -6 15 -13 0 -7 13 -24 30 -37 16
-14 29 -30 30 -35 0 -6 14 -21 30 -35 17 -14 30 -31 30 -39 0 -8 7 -21 15 -30
8 -9 36 -40 62 -69 26 -30 59 -66 73 -81 14 -15 32 -40 40 -55 8 -15 22 -32
32 -37 10 -5 18 -16 18 -25 0 -8 7 -17 15 -20 8 -4 15 -12 15 -20 0 -8 8 -23
18 -33 27 -31 37 -44 57 -78 42 -72 45 -54 45 292 0 289 -2 328 -17 359 -10
20 -24 36 -30 36 -7 0 -13 5 -13 10 0 6 -13 10 -29 10 -42 0 -61 9 -61 30 0
17 12 18 137 18 76 0 143 -3 150 -5 22 -9 14 -33 -14 -45 -65 -28 -63 -9 -63
-494 0 -461 -2 -484 -43 -468 -9 3 -17 10 -17 14 0 5 -13 24 -30 42 -16 18
-30 38 -30 45 0 7 -4 13 -9 13 -5 0 -13 9 -16 20 -3 11 -13 20 -21 20 -8 0
-14 6 -14 14 0 8 -6 21 -12 28 -7 7 -30 33 -50 58 -20 25 -52 63 -72 85 -20
22 -36 43 -36 47 0 4 -8 15 -18 25 -10 10 -34 38 -52 63 -48 62 -49 64 -102
121 -27 27 -48 53 -48 56 0 3 -13 22 -28 42 -16 20 -32 44 -35 54 -4 10 -12
17 -18 15 -10 -3 -15 -336 -10 -629 l1 -47 51 -18 c57 -21 72 -34 60 -53 -10
-15 -290 -16 -305 -1 -14 14 10 38 45 45 58 13 69 55 76 285 11 371 10 474 -6
515 -24 65 -51 93 -102 110 -35 12 -46 20 -42 31 4 10 18 14 49 13 24 -2 47 0
50 4 16 16 64 5 93 -20z m-3522 -1071 c-10 -10 -17 -24 -17 -31 0 -6 -7 -14
-15 -17 -8 -4 -15 -10 -15 -16 0 -5 -6 -15 -12 -22 -7 -8 -20 -24 -28 -36 -8
-12 -23 -33 -32 -45 -10 -13 -18 -27 -18 -32 0 -11 -37 -43 -50 -43 -17 0 116
192 179 257 20 21 27 6 8 -15z m1903 -167 c0 -23 -41 -82 -102 -146 -10 -11
-18 -23 -18 -27 0 -5 -7 -9 -15 -9 -20 0 -19 4 9 30 14 13 28 35 31 50 4 15
11 27 16 27 8 0 33 40 45 73 8 21 34 23 34 2z"/>
<path d="M7110 3580 c-65 -6 -180 -51 -180 -71 0 -5 -6 -9 -14 -9 -8 0 -18 -9
-21 -20 -3 -11 -11 -20 -16 -20 -5 0 -9 -6 -9 -14 0 -8 -7 -16 -15 -20 -8 -3
-15 -14 -15 -24 0 -10 -4 -22 -10 -28 -42 -42 -45 -351 -4 -385 8 -6 14 -19
14 -29 0 -9 11 -37 25 -61 13 -24 29 -54 35 -66 5 -13 14 -23 20 -23 5 0 10
-7 10 -15 0 -8 7 -15 15 -15 8 0 15 -7 15 -15 0 -8 5 -15 12 -15 6 0 21 -8 32
-18 12 -10 40 -25 64 -32 23 -7 47 -19 53 -27 14 -16 169 -19 169 -3 0 6 11
10 24 10 13 0 35 9 49 20 14 11 30 20 36 20 6 0 11 4 11 8 0 4 14 16 30 25 17
10 30 25 30 33 0 8 11 35 24 59 14 24 22 46 19 49 -4 3 -1 6 5 6 7 0 12 8 12
18 0 10 6 24 13 31 8 8 12 54 12 153 0 104 -3 142 -12 146 -7 2 -13 12 -13 22
0 16 -25 76 -55 128 -18 33 -72 92 -83 92 -5 0 -12 6 -15 13 -2 7 -22 21 -43
32 -22 11 -41 23 -44 26 -11 12 -119 24 -180 19z m-149 -402 c-17 -17 -31 -35
-31 -40 0 -4 -7 -5 -15 -2 -10 4 -15 0 -15 -11 0 -19 -66 -92 -75 -83 -8 7 16
61 32 71 7 4 13 15 13 22 0 8 7 15 15 15 8 0 15 5 15 10 0 6 6 10 13 10 8 0
22 9 32 20 10 11 25 20 33 20 9 0 3 -11 -17 -32z"/>
<path d="M10852 4179 c-19 -4 -46 -18 -60 -32 -15 -14 -39 -29 -54 -32 -16 -4
-28 -12 -28 -19 0 -6 -23 -22 -51 -36 -28 -14 -56 -32 -63 -40 -6 -8 -37 -28
-68 -45 -32 -16 -58 -35 -58 -41 0 -7 -11 -15 -25 -18 -25 -6 -48 -22 -87 -58
-10 -10 -22 -18 -26 -18 -5 0 -17 -9 -27 -20 -10 -11 -22 -20 -26 -20 -10 0
-41 -24 -73 -55 -34 -34 -129 -94 -158 -101 -19 -4 -28 -13 -28 -25 0 -16 7
-20 38 -19 97 2 201 -42 202 -85 0 -11 7 -29 15 -39 17 -22 22 -171 6 -180 -4
-3 -11 -18 -14 -34 -6 -28 -94 -132 -112 -132 -6 0 -16 -4 -24 -9 -11 -7 -6
-17 20 -45 19 -20 41 -54 49 -75 8 -21 23 -49 33 -62 43 -58 87 -132 87 -145
0 -8 7 -17 15 -20 8 -4 15 -11 15 -18 0 -15 92 -106 106 -106 6 0 19 -9 29
-20 27 -30 7 -43 -62 -42 -78 2 -122 25 -168 89 -21 29 -42 53 -47 53 -4 0 -8
8 -8 18 0 10 -5 23 -11 29 -12 12 -33 46 -48 80 -5 11 -15 24 -20 28 -6 3 -11
14 -11 25 0 10 -7 20 -15 24 -8 3 -15 15 -15 26 0 11 -4 20 -9 20 -5 0 -14 14
-20 30 -17 51 -32 58 -122 62 l-84 3 -2 -160 c-3 -209 4 -234 82 -259 46 -14
75 -37 75 -60 0 -4 -285 -1 -357 3 -23 2 -14 41 12 51 13 5 34 19 46 31 21 21
22 31 25 278 2 141 5 293 7 339 6 105 -7 114 -65 48 -23 -25 -45 -46 -50 -46
-5 0 -26 -18 -45 -40 -20 -22 -42 -40 -49 -40 -7 0 -14 -4 -16 -9 -1 -5 -34
-32 -72 -60 -100 -76 -97 -71 -76 -114 10 -21 22 -52 25 -70 4 -17 13 -42 21
-54 8 -12 14 -33 14 -45 1 -13 7 -34 15 -48 8 -14 14 -35 15 -47 0 -13 4 -23
9 -23 5 0 19 -20 30 -43 17 -35 29 -46 60 -56 35 -10 59 -36 47 -49 -3 -2 -65
-5 -138 -6 l-132 -1 -38 -70 c-20 -38 -40 -78 -44 -87 -3 -10 -10 -18 -14 -18
-12 0 -30 -58 -30 -95 0 -28 -13 -46 -85 -117 -47 -47 -85 -90 -85 -97 0 -6
-4 -11 -10 -11 -9 0 -110 -96 -110 -105 0 -2 -23 -28 -50 -57 -28 -29 -63 -66
-77 -81 -20 -20 -26 -37 -25 -61 2 -28 -2 -35 -26 -45 -16 -7 -35 -23 -42 -36
-19 -35 3 -50 82 -59 72 -7 108 5 108 35 0 9 8 25 18 35 16 17 32 19 207 18
132 -1 192 2 197 9 9 15 210 9 236 -7 12 -7 140 11 177 26 17 6 41 24 55 38
14 15 35 32 48 39 12 6 22 18 22 25 0 8 7 16 15 20 8 3 15 12 15 21 0 8 7 15
15 15 8 0 15 5 15 10 0 6 6 10 14 10 8 0 16 6 19 13 3 9 57 11 239 9 210 -4
239 -2 269 14 38 20 64 24 97 17 20 -5 33 -33 15 -33 -11 0 -83 -64 -83 -73 0
-11 -159 -167 -169 -167 -5 0 -18 -11 -29 -25 -11 -14 -25 -25 -31 -25 -6 0
-11 -4 -11 -10 0 -5 -13 -22 -29 -37 -71 -69 -132 -123 -139 -123 -5 0 -35
-26 -69 -57 -33 -32 -88 -83 -121 -113 -34 -30 -61 -61 -62 -67 0 -7 -4 -13
-10 -13 -27 0 -70 -71 -70 -115 0 -40 39 -50 120 -33 25 6 59 12 75 14 17 2
32 9 33 14 2 6 9 10 17 10 7 0 43 16 80 35 37 19 84 40 104 46 20 7 52 20 71
30 19 11 40 19 47 19 7 0 13 4 13 8 0 5 27 17 60 27 33 10 60 21 60 25 0 4 12
13 28 20 64 32 182 104 182 112 0 4 5 8 10 8 11 0 26 11 66 47 14 13 29 23 34
23 6 0 10 7 10 15 0 7 6 18 13 22 6 4 19 21 27 37 8 15 24 32 36 36 11 5 38
25 59 45 28 26 45 35 61 31 26 -7 59 19 159 122 39 39 75 72 81 72 10 0 24 21
24 36 0 10 -38 3 -55 -10 -44 -32 -59 10 -21 58 21 25 28 28 75 25 28 -2 51 0
51 5 0 5 6 3 14 -3 7 -6 44 -13 82 -16 38 -2 113 -7 167 -11 105 -7 151 1 246
44 30 13 63 32 74 43 12 10 25 19 29 19 10 0 126 77 146 97 7 7 19 13 27 13 7
0 24 13 37 29 14 16 36 32 49 36 13 4 26 11 29 14 3 4 27 23 55 42 27 18 56
40 63 47 7 6 17 12 21 12 5 0 20 11 35 25 15 14 36 25 47 25 10 0 19 4 19 9 0
5 25 24 55 42 30 18 55 37 55 41 0 4 9 8 20 8 11 0 20 7 20 15 0 8 9 15 19 15
11 0 26 6 33 13 7 7 30 21 50 30 20 10 40 22 43 26 3 5 19 12 35 16 17 4 30
10 30 15 0 4 20 13 45 19 50 12 52 18 29 66 -13 29 -21 33 -67 39 -29 4 -62
10 -74 13 -26 6 -31 23 -8 23 8 0 15 5 15 10 0 6 7 10 15 10 8 0 15 9 15 20 0
16 -7 20 -35 20 -48 0 -128 18 -208 46 -76 27 -177 33 -177 11 0 -7 -20 -20
-45 -29 -25 -10 -45 -13 -45 -9 0 21 -34 19 -64 -4 -18 -14 -38 -25 -44 -25
-7 0 -12 -4 -12 -9 0 -6 -13 -18 -30 -28 -16 -9 -30 -23 -30 -30 0 -7 -7 -13
-15 -13 -8 0 -15 -3 -15 -8 0 -11 -100 -87 -142 -106 -20 -10 -44 -26 -54 -37
-9 -10 -23 -19 -31 -19 -7 0 -13 -4 -13 -9 0 -5 -20 -22 -45 -38 -25 -15 -45
-31 -45 -34 0 -4 -10 -10 -22 -13 -13 -3 -41 -22 -63 -41 -22 -19 -45 -35 -52
-35 -7 0 -13 -3 -13 -8 0 -4 -40 -34 -90 -66 -49 -33 -90 -63 -90 -68 0 -4 -6
-8 -12 -8 -7 -1 -42 -23 -77 -50 -35 -26 -76 -54 -90 -62 -14 -7 -28 -15 -31
-18 -3 -3 -29 -16 -57 -29 -29 -14 -53 -28 -53 -33 0 -4 -9 -8 -20 -8 -23 0
-27 18 -5 26 8 4 15 11 15 18 0 6 22 29 49 50 27 22 55 50 62 63 7 13 18 23
26 23 7 0 13 4 13 10 0 5 14 16 30 25 17 9 30 21 30 28 1 12 64 57 81 57 5 0
9 7 9 15 0 8 7 15 15 15 8 0 15 6 15 14 0 17 48 59 90 77 16 8 30 17 30 21 0
5 5 8 10 8 6 0 18 8 28 18 34 31 62 52 72 52 5 0 20 10 34 23 43 39 66 57 74
57 12 1 52 38 52 49 0 6 7 11 15 11 8 0 15 5 15 10 0 6 5 10 11 10 7 0 22 11
35 25 13 14 26 25 29 25 4 0 24 18 46 40 22 22 42 40 46 40 3 0 35 26 72 58
36 33 85 71 109 87 32 21 42 34 42 54 0 28 50 81 76 81 8 0 14 10 14 25 0 16
-6 25 -15 25 -9 0 -15 9 -15 25 0 14 7 28 15 31 8 4 15 12 15 20 0 7 9 18 20
24 27 15 25 30 -5 30 -22 0 -75 44 -75 62 0 23 -73 -18 -135 -75 -11 -10 -39
-30 -62 -44 -24 -14 -43 -29 -43 -34 0 -5 -4 -9 -10 -9 -10 0 -24 -10 -85 -62
-18 -16 -38 -28 -44 -28 -6 0 -11 -4 -11 -8 0 -5 -12 -15 -27 -23 -28 -15 -56
-37 -104 -81 -16 -16 -34 -28 -39 -28 -6 0 -10 -4 -10 -10 0 -5 -5 -10 -11
-10 -6 0 -32 -17 -57 -37 -26 -21 -53 -42 -60 -48 -7 -5 -30 -25 -50 -42 -20
-18 -41 -33 -47 -33 -6 0 -17 -9 -25 -20 -19 -27 -73 -55 -78 -40 -8 22 -31 8
-37 -22 -9 -40 -26 -68 -41 -68 -6 0 -28 -16 -48 -35 -21 -19 -39 -35 -42 -35
-2 0 -13 -9 -24 -20 -31 -31 -57 -20 -30 13 16 20 100 121 114 137 7 8 16 23
19 33 4 9 11 17 17 17 5 0 10 7 10 15 0 8 4 15 9 15 12 0 81 70 81 82 0 5 27
37 60 70 33 32 60 62 60 66 0 4 14 16 30 27 16 11 30 23 30 28 0 12 39 47 52
47 7 0 33 20 58 44 112 109 155 146 158 136 5 -13 -27 -49 -147 -164 -60 -57
-72 -76 -49 -76 13 0 228 214 228 227 0 5 17 23 37 39 20 16 50 41 66 57 16
15 32 27 37 27 12 0 34 30 27 37 -3 3 -23 9 -44 13 -52 10 -134 31 -158 40
-93 34 -175 49 -175 30 0 -5 -9 -10 -19 -10 -20 0 -154 -77 -159 -91 -2 -5
-10 -9 -18 -9 -8 0 -23 -9 -35 -21 -12 -12 -38 -24 -60 -26 -21 -3 -47 -14
-58 -24 -11 -11 -25 -19 -31 -19 -5 0 -10 -7 -10 -15 0 -8 -4 -15 -10 -15 -5
0 -19 -9 -30 -20 -25 -25 -40 -26 -39 -2 0 9 30 41 65 71 66 54 75 73 36 79
-22 3 -32 22 -12 22 6 0 20 9 32 20 12 11 28 20 35 20 9 0 14 22 15 83 l2 82
3 -70 c2 -38 8 -74 14 -80 6 -5 9 -5 9 3 0 7 6 12 13 12 6 0 25 7 40 15 20 10
35 11 52 5 17 -6 28 -5 37 3 7 7 25 18 41 26 17 9 27 22 27 36 0 20 -11 25
-117 51 -65 15 -120 30 -123 34 -3 3 -30 14 -61 23 -53 17 -89 15 -89 -4 0 -5
-7 -9 -15 -9 -8 0 -24 -9 -35 -20 -11 -11 -30 -22 -43 -25 -13 -4 -36 -17 -52
-30 -15 -14 -43 -30 -61 -37 -19 -7 -34 -16 -34 -20 0 -4 -6 -8 -12 -8 -15 0
-142 -81 -179 -114 -15 -13 -35 -27 -46 -30 -11 -4 -28 -15 -38 -26 -17 -19
-17 -21 9 -41 14 -11 26 -29 26 -39 0 -10 4 -21 9 -24 5 -3 28 -43 51 -88 23
-46 46 -87 50 -92 12 -12 40 12 40 34 0 10 7 23 15 30 8 7 15 21 15 31 0 10 6
22 13 26 6 4 21 26 32 48 11 22 26 46 32 53 7 7 13 20 13 27 0 8 6 18 13 22
17 10 29 54 19 70 -4 7 -25 18 -47 25 -42 14 -55 32 -30 42 29 11 181 19 219
12 46 -9 49 -39 7 -60 -26 -14 -91 -85 -91 -100 0 -3 -13 -25 -29 -48 -67
-100 -91 -140 -91 -152 0 -8 -7 -19 -15 -26 -8 -7 -15 -20 -15 -29 0 -10 -13
-30 -30 -46 l-30 -29 0 -211 c0 -237 -5 -220 78 -265 85 -47 51 -58 -163 -53
-130 3 -140 4 -143 22 -3 16 6 23 38 32 68 21 70 28 70 255 0 161 -3 204 -14
213 -8 7 -17 23 -20 36 -4 14 -11 25 -16 25 -6 0 -10 8 -10 19 0 10 -7 24 -15
31 -8 7 -15 19 -15 27 0 7 -7 16 -15 19 -8 4 -15 12 -15 20 0 18 -38 90 -55
104 -11 9 -18 7 -32 -9 -9 -12 -21 -21 -25 -21 -16 0 -8 22 15 40 l22 19 -30
57 c-24 45 -39 61 -75 77 -25 12 -47 23 -49 24 -2 1 2 9 9 18 9 10 31 15 71
15 40 0 59 4 59 13 0 8 2 9 8 1 4 -6 35 -13 69 -16 69 -5 86 -13 63 -31 -8 -7
-24 -22 -34 -35 -16 -18 -17 -22 -4 -22 20 0 78 50 78 67 0 7 4 13 8 13 5 0
32 23 60 50 29 28 59 50 67 50 8 0 15 7 15 15 0 8 7 15 15 15 8 0 15 9 15 20
0 13 5 18 15 14 9 -4 15 0 15 10 0 9 4 16 8 16 14 0 52 36 52 49 0 6 4 11 9
11 4 0 20 11 34 24 14 13 40 34 59 47 18 12 42 32 54 43 33 34 88 76 99 76 6
0 16 10 23 21 18 28 4 41 -44 46 -20 2 -45 8 -55 13 -10 6 -27 10 -38 10 -12
0 -21 4 -21 9 0 5 -19 12 -42 16 -24 4 -59 13 -78 20 -20 7 -49 9 -68 4z
m-345 -551 c-3 -8 -6 -5 -6 6 -1 11 2 17 5 13 3 -3 4 -12 1 -19z m770 -1155
c-2 -16 -4 -5 -4 22 0 28 2 40 4 28 2 -13 2 -35 0 -50z m-177 -436 c0 -11 -59
-41 -66 -34 -2 2 -1 13 3 25 4 16 13 22 34 22 17 0 29 -5 29 -13z m-946 -710
c17 -13 17 -14 1 -31 -10 -10 -37 -29 -59 -43 -23 -14 -43 -29 -46 -33 -3 -4
-23 -13 -45 -20 -22 -7 -44 -16 -50 -20 -13 -10 -108 -30 -140 -30 -18 0 -25
6 -25 19 0 21 15 35 48 46 13 4 40 23 60 43 43 43 62 50 62 23 0 -38 52 -34
82 7 18 25 59 52 78 52 9 0 24 -6 34 -13z"/>
<path d="M3582 4134 c-29 -18 -55 -34 -57 -34 -3 0 -23 -11 -45 -25 -22 -14
-46 -25 -54 -25 -8 0 -21 -6 -28 -12 -28 -27 -78 -58 -91 -58 -8 0 -27 -11
-43 -25 -16 -14 -41 -31 -56 -38 -16 -6 -28 -15 -28 -19 0 -5 -6 -8 -14 -8 -8
0 -16 -4 -18 -8 -1 -5 -52 -41 -113 -82 -60 -41 -118 -82 -128 -92 -10 -10
-22 -18 -26 -18 -5 0 -41 -26 -80 -57 -39 -32 -93 -74 -121 -93 -28 -19 -63
-45 -78 -58 -15 -13 -38 -29 -53 -37 -14 -7 -34 -25 -44 -39 -11 -14 -25 -26
-31 -26 -7 0 -25 -11 -40 -24 -46 -39 -163 -126 -169 -126 -3 0 -16 -11 -28
-24 -13 -14 -35 -28 -50 -31 -46 -12 -34 -39 26 -58 30 -9 63 -17 75 -17 12 0
22 -4 22 -8 0 -9 142 -42 178 -42 13 0 31 -4 41 -9 13 -7 29 -1 67 24 27 19
55 34 62 35 6 0 12 4 12 8 0 4 14 16 30 25 40 24 38 6 -5 -39 -34 -35 -47 -69
-22 -62 6 3 16 14 22 26 5 12 15 22 22 22 7 0 13 7 13 15 0 8 4 15 9 15 5 0
13 10 16 21 4 12 20 35 36 50 16 16 29 32 29 36 1 4 25 28 55 52 30 24 52 48
49 53 -3 4 0 8 6 8 6 0 28 18 49 40 21 22 42 40 47 40 5 0 16 9 24 20 8 11 19
20 24 20 6 0 19 9 31 20 30 30 114 90 125 90 6 0 10 4 10 9 0 5 14 14 30 21
17 7 30 16 30 21 0 5 5 9 11 9 6 0 17 7 25 15 9 8 24 15 35 15 10 0 19 6 19
13 0 8 7 14 15 14 20 0 20 -1 -15 -39 -16 -18 -30 -38 -30 -45 0 -7 -4 -13 -9
-13 -5 0 -44 -37 -87 -81 -44 -45 -87 -89 -96 -98 -10 -8 -18 -19 -18 -22 0
-10 -32 -47 -112 -130 -38 -38 -68 -76 -68 -84 0 -8 -3 -15 -8 -15 -11 0 -53
-41 -82 -79 -14 -19 -33 -42 -42 -52 -10 -11 -18 -22 -18 -25 0 -3 -21 -27
-47 -54 -27 -26 -71 -74 -100 -106 -29 -33 -75 -84 -103 -114 -27 -30 -50 -62
-50 -71 0 -9 -20 -37 -45 -63 -25 -27 -45 -54 -45 -62 0 -8 -5 -14 -10 -14 -6
0 -15 -10 -20 -22 -16 -36 -33 -60 -62 -87 -16 -14 -28 -30 -28 -35 0 -17 -51
-55 -66 -49 -13 5 -54 -30 -54 -46 0 -16 -53 -61 -72 -61 -20 0 -20 1 -5 18
10 10 17 21 17 24 0 5 57 96 78 123 4 6 18 32 32 58 46 88 51 97 61 97 5 0 9
5 9 11 0 6 10 24 23 39 12 16 33 45 47 65 14 20 31 42 38 50 6 7 12 18 12 23
0 6 7 12 15 16 8 3 15 12 15 19 0 8 20 35 45 61 25 27 45 52 45 56 0 4 7 13
15 20 8 7 15 22 15 34 -1 24 5 29 -83 -82 -23 -29 -54 -67 -68 -85 -14 -18
-28 -40 -32 -49 -4 -10 -11 -18 -17 -18 -5 0 -10 -6 -10 -12 0 -7 -11 -23 -25
-36 -13 -13 -42 -51 -65 -85 -22 -34 -44 -67 -50 -74 -5 -7 -10 -17 -10 -22 0
-6 -6 -14 -12 -18 -7 -4 -24 -29 -38 -55 -13 -27 -28 -48 -32 -48 -5 0 -8 -9
-8 -20 0 -11 -4 -20 -9 -20 -11 0 -51 -66 -51 -84 0 -8 -7 -19 -15 -26 -8 -7
-15 -21 -15 -32 0 -18 5 -20 31 -14 17 3 39 1 49 -4 27 -14 65 -19 220 -26
126 -6 139 -5 178 15 24 12 47 19 52 16 6 -3 10 1 10 9 0 9 19 28 42 43 48 32
73 50 100 76 10 9 20 17 23 17 3 0 13 8 23 18 11 9 33 28 50 42 17 14 31 31
32 38 0 16 57 68 93 84 15 7 27 16 27 20 0 4 19 12 43 19 50 13 73 31 81 65 4
13 11 24 16 24 6 0 15 12 20 26 6 14 19 28 30 31 11 3 20 11 20 18 0 7 4 15 9
17 4 2 36 28 70 58 68 60 101 78 101 56 0 -24 24 -24 42 0 10 12 18 27 18 33
0 6 5 11 11 11 6 0 17 7 25 15 8 8 23 20 34 28 19 14 22 41 34 345 7 175 2
180 -81 95 -55 -56 -93 -82 -93 -64 0 4 9 16 20 26 11 10 20 22 20 27 0 11 98
108 109 108 11 0 31 47 31 74 0 13 -5 37 -11 53 -8 25 -19 33 -55 42 -44 11
-58 33 -28 45 9 3 73 6 144 6 l128 0 66 65 c36 36 66 71 66 78 0 6 12 20 28
31 15 10 47 43 71 72 24 31 51 54 62 54 15 0 19 7 19 39 0 22 5 43 10 46 17
10 -8 35 -35 35 -22 0 -70 16 -210 69 -103 40 -136 39 -203 -5z m-425 -1036
c-3 -7 -5 -2 -5 12 0 14 2 19 5 13 2 -7 2 -19 0 -25z m-87 -118 c0 -5 -2 -10
-4 -10 -3 0 -8 5 -11 10 -3 6 -1 10 4 10 6 0 11 -4 11 -10z"/>
<path d="M3745 3558 c-11 -6 -39 -26 -61 -45 l-41 -33 -8 -201 c-8 -214 -3
-237 36 -198 15 15 17 24 9 38 -12 24 10 45 38 37 14 -5 31 5 59 31 53 50 70
63 82 63 5 0 11 4 13 8 2 5 24 23 50 40 26 18 52 41 58 52 11 20 3 77 -11 86
-5 3 -9 13 -9 22 -1 20 -34 62 -49 62 -6 0 -11 7 -11 15 0 28 -115 46 -155 23z"/>
<path d="M9892 3520 c-36 -26 -42 -35 -42 -68 -1 -20 -3 -96 -5 -169 -6 -157
-7 -155 107 -149 76 4 136 24 166 54 45 45 52 65 52 149 0 72 -3 89 -25 124
-14 22 -34 43 -43 46 -9 4 -20 11 -23 16 -7 10 -78 26 -120 27 -14 0 -45 -14
-67 -30z"/>
<path d="M9050 3417 c-6 -18 -20 -55 -31 -82 -10 -28 -19 -58 -19 -68 0 -9 -4
-17 -9 -17 -5 0 -13 -10 -16 -22 -12 -42 -47 -108 -56 -108 -12 0 -12 -47 1
-52 5 -1 73 -2 150 0 l140 3 0 28 c0 15 -7 36 -15 47 -8 10 -15 27 -15 37 0
10 -12 44 -26 75 -14 31 -35 85 -45 118 -23 73 -42 86 -59 41z"/>
<path d="M3937 3280 c-6 -16 -15 -30 -20 -30 -5 0 -14 -6 -21 -12 -34 -33 -67
-58 -76 -58 -6 0 -10 -9 -10 -20 0 -11 5 -20 10 -20 23 0 110 46 110 58 0 7 7
15 15 18 8 4 15 14 15 23 0 9 5 22 11 28 13 13 5 43 -12 43 -6 0 -16 -13 -22
-30z"/>
<path d="M11280 2855 c0 -8 7 -15 15 -15 8 0 15 4 15 9 0 5 -7 11 -15 15 -9 3
-15 0 -15 -9z"/>
<path d="M2970 2459 c-14 -24 -9 -32 14 -23 17 7 23 44 6 44 -5 0 -14 -9 -20
-21z"/>
<path d="M7245 1511 c-3 -5 -1 -12 5 -16 5 -3 10 1 10 9 0 18 -6 21 -15 7z"/>
</g>
</svg>
